<svg width="174" height="47" viewBox="0 0 174 47" fill="none" xmlns="http://www.w3.org/2000/svg">
<rect width="173" height="47" rx="5" fill="#1E1E1E"/>
<path d="M59.3208 27.6445V33.8887C59.0887 34.1956 58.7256 34.5326 58.2314 34.8994C57.7448 35.2588 57.0972 35.5695 56.2886 35.8315C55.48 36.0936 54.473 36.2246 53.2676 36.2246C52.2419 36.2246 51.3022 36.0524 50.4487 35.708C49.5952 35.3561 48.8577 34.8433 48.2363 34.1694C47.6224 33.4956 47.147 32.6758 46.8101 31.71C46.4731 30.7367 46.3047 29.6286 46.3047 28.3857V27.2515C46.3047 26.0161 46.4582 24.9155 46.7651 23.9497C47.0796 22.9764 47.5288 22.1528 48.1128 21.479C48.6968 20.8052 49.4006 20.2961 50.2241 19.9517C51.0552 19.5998 51.9948 19.4238 53.043 19.4238C54.3831 19.4238 55.4912 19.6484 56.3672 20.0977C57.2507 20.5394 57.932 21.1533 58.4111 21.9395C58.8903 22.7256 59.1935 23.624 59.3208 24.6348H56.5581C56.4683 24.0658 56.2923 23.5566 56.0303 23.1074C55.7757 22.6582 55.4089 22.3063 54.9297 22.0518C54.458 21.7897 53.8441 21.6587 53.0879 21.6587C52.4365 21.6587 51.8638 21.7822 51.3696 22.0293C50.8755 22.2764 50.4637 22.6395 50.1343 23.1187C49.8123 23.5978 49.569 24.1818 49.4043 24.8706C49.2396 25.5594 49.1572 26.3455 49.1572 27.229V28.3857C49.1572 29.2842 49.2508 30.0815 49.438 30.7778C49.6326 31.4741 49.9097 32.0618 50.269 32.541C50.6359 33.0202 51.0814 33.3833 51.6055 33.6304C52.1296 33.87 52.721 33.9897 53.3799 33.9897C54.0238 33.9897 54.5516 33.9373 54.9634 33.8325C55.3752 33.7202 55.7008 33.5892 55.9404 33.4395C56.1875 33.2822 56.3784 33.1325 56.5132 32.9902V29.7446H53.1104V27.6445H59.3208ZM61.6567 30.0591V29.8008C61.6567 28.9248 61.784 28.1125 62.0386 27.3638C62.2931 26.6076 62.66 25.9525 63.1392 25.3984C63.6258 24.8369 64.2173 24.4027 64.9136 24.0957C65.6174 23.7812 66.411 23.624 67.2944 23.624C68.1854 23.624 68.979 23.7812 69.6753 24.0957C70.3791 24.4027 70.9743 24.8369 71.4609 25.3984C71.9476 25.9525 72.3182 26.6076 72.5728 27.3638C72.8273 28.1125 72.9546 28.9248 72.9546 29.8008V30.0591C72.9546 30.9351 72.8273 31.7474 72.5728 32.4961C72.3182 33.2448 71.9476 33.8999 71.4609 34.4614C70.9743 35.0155 70.3828 35.4497 69.6865 35.7642C68.9902 36.0711 68.2004 36.2246 67.3169 36.2246C66.4259 36.2246 65.6286 36.0711 64.9248 35.7642C64.2285 35.4497 63.637 35.0155 63.1504 34.4614C62.6637 33.8999 62.2931 33.2448 62.0386 32.4961C61.784 31.7474 61.6567 30.9351 61.6567 30.0591ZM64.3633 29.8008V30.0591C64.3633 30.6056 64.4194 31.1222 64.5317 31.6089C64.644 32.0955 64.82 32.5223 65.0596 32.8892C65.2992 33.256 65.6061 33.5443 65.9805 33.7539C66.3548 33.9635 66.8003 34.0684 67.3169 34.0684C67.8185 34.0684 68.2528 33.9635 68.6196 33.7539C68.994 33.5443 69.3009 33.256 69.5405 32.8892C69.7801 32.5223 69.9561 32.0955 70.0684 31.6089C70.1882 31.1222 70.248 30.6056 70.248 30.0591V29.8008C70.248 29.2617 70.1882 28.7526 70.0684 28.2734C69.9561 27.7868 69.7764 27.3563 69.5293 26.9819C69.2897 26.6076 68.9827 26.3156 68.6084 26.106C68.2415 25.8888 67.8035 25.7803 67.2944 25.7803C66.7853 25.7803 66.3436 25.8888 65.9692 26.106C65.6024 26.3156 65.2992 26.6076 65.0596 26.9819C64.82 27.3563 64.644 27.7868 64.5317 28.2734C64.4194 28.7526 64.3633 29.2617 64.3633 29.8008ZM74.7065 30.0591V29.8008C74.7065 28.9248 74.8338 28.1125 75.0884 27.3638C75.3429 26.6076 75.7098 25.9525 76.189 25.3984C76.6756 24.8369 77.2671 24.4027 77.9634 24.0957C78.6672 23.7812 79.4608 23.624 80.3442 23.624C81.2352 23.624 82.0288 23.7812 82.7251 24.0957C83.4289 24.4027 84.0241 24.8369 84.5107 25.3984C84.9974 25.9525 85.368 26.6076 85.6226 27.3638C85.8771 28.1125 86.0044 28.9248 86.0044 29.8008V30.0591C86.0044 30.9351 85.8771 31.7474 85.6226 32.4961C85.368 33.2448 84.9974 33.8999 84.5107 34.4614C84.0241 35.0155 83.4326 35.4497 82.7363 35.7642C82.04 36.0711 81.2502 36.2246 80.3667 36.2246C79.4757 36.2246 78.6784 36.0711 77.9746 35.7642C77.2783 35.4497 76.6868 35.0155 76.2002 34.4614C75.7135 33.8999 75.3429 33.2448 75.0884 32.4961C74.8338 31.7474 74.7065 30.9351 74.7065 30.0591ZM77.4131 29.8008V30.0591C77.4131 30.6056 77.4692 31.1222 77.5815 31.6089C77.6938 32.0955 77.8698 32.5223 78.1094 32.8892C78.349 33.256 78.6559 33.5443 79.0303 33.7539C79.4046 33.9635 79.8501 34.0684 80.3667 34.0684C80.8683 34.0684 81.3026 33.9635 81.6694 33.7539C82.0438 33.5443 82.3507 33.256 82.5903 32.8892C82.8299 32.5223 83.0059 32.0955 83.1182 31.6089C83.238 31.1222 83.2979 30.6056 83.2979 30.0591V29.8008C83.2979 29.2617 83.238 28.7526 83.1182 28.2734C83.0059 27.7868 82.8262 27.3563 82.5791 26.9819C82.3395 26.6076 82.0326 26.3156 81.6582 26.106C81.2913 25.8888 80.8534 25.7803 80.3442 25.7803C79.8351 25.7803 79.3934 25.8888 79.019 26.106C78.6522 26.3156 78.349 26.6076 78.1094 26.9819C77.8698 27.3563 77.6938 27.7868 77.5815 28.2734C77.4692 28.7526 77.4131 29.2617 77.4131 29.8008ZM96.0557 23.8486H98.5151V35.6631C98.5151 36.7562 98.283 37.6846 97.8188 38.4482C97.3547 39.2119 96.707 39.7922 95.876 40.189C95.0449 40.5933 94.0828 40.7954 92.9897 40.7954C92.5256 40.7954 92.009 40.728 91.4399 40.5933C90.8784 40.4585 90.3319 40.2414 89.8003 39.9419C89.2762 39.6499 88.8382 39.2643 88.4863 38.7852L89.7554 37.1904C90.1896 37.707 90.6688 38.0851 91.1929 38.3247C91.717 38.5643 92.2673 38.6841 92.8438 38.6841C93.4652 38.6841 93.993 38.568 94.4272 38.3359C94.869 38.1113 95.2096 37.7782 95.4492 37.3364C95.6888 36.8947 95.8086 36.3556 95.8086 35.7192V26.6001L96.0557 23.8486ZM87.8013 30.0591V29.8232C87.8013 28.9023 87.9136 28.0638 88.1382 27.3076C88.3628 26.5439 88.6847 25.8888 89.104 25.3423C89.5233 24.7882 90.0324 24.3652 90.6313 24.0732C91.2303 23.7738 91.9079 23.624 92.6641 23.624C93.4502 23.624 94.1203 23.7663 94.6743 24.0508C95.2358 24.3353 95.7038 24.7433 96.0781 25.2749C96.4525 25.799 96.7445 26.4279 96.9541 27.1616C97.1712 27.8879 97.3322 28.6965 97.437 29.5874V30.3398C97.3397 31.2083 97.175 32.002 96.9429 32.7207C96.7108 33.4395 96.4038 34.0609 96.022 34.585C95.6401 35.109 95.1685 35.5133 94.6069 35.7979C94.0529 36.0824 93.3978 36.2246 92.6416 36.2246C91.9004 36.2246 91.2303 36.0711 90.6313 35.7642C90.0399 35.4572 89.5308 35.0267 89.104 34.4727C88.6847 33.9186 88.3628 33.2673 88.1382 32.5186C87.9136 31.7624 87.8013 30.9425 87.8013 30.0591ZM90.5078 29.8232V30.0591C90.5078 30.6131 90.5602 31.1297 90.665 31.6089C90.7773 32.0881 90.9458 32.5111 91.1704 32.8779C91.4025 33.2373 91.6945 33.5218 92.0464 33.7314C92.4058 33.9336 92.8288 34.0347 93.3154 34.0347C93.9518 34.0347 94.4722 33.8999 94.8765 33.6304C95.2882 33.3608 95.6027 32.9977 95.8198 32.541C96.0444 32.0768 96.2017 31.5602 96.2915 30.9912V28.9585C96.2466 28.5168 96.153 28.105 96.0107 27.7231C95.876 27.3413 95.6925 27.0081 95.4604 26.7236C95.2284 26.4316 94.9364 26.207 94.5845 26.0498C94.2326 25.8851 93.8171 25.8027 93.3379 25.8027C92.8512 25.8027 92.4282 25.9076 92.0688 26.1172C91.7095 26.3268 91.4137 26.6151 91.1816 26.9819C90.957 27.3488 90.7886 27.7756 90.6763 28.2622C90.564 28.7489 90.5078 29.2692 90.5078 29.8232ZM104.22 18.75V36H101.502V18.75H104.22ZM112.542 36.2246C111.644 36.2246 110.831 36.0786 110.105 35.7866C109.386 35.4871 108.772 35.0716 108.263 34.54C107.762 34.0085 107.376 33.3833 107.106 32.6646C106.837 31.9458 106.702 31.1709 106.702 30.3398V29.8906C106.702 28.9398 106.841 28.0788 107.118 27.3076C107.395 26.5365 107.78 25.8776 108.274 25.3311C108.769 24.777 109.353 24.354 110.026 24.062C110.7 23.77 111.43 23.624 112.216 23.624C113.085 23.624 113.845 23.77 114.496 24.062C115.147 24.354 115.687 24.7658 116.113 25.2974C116.548 25.8215 116.869 26.4466 117.079 27.1729C117.296 27.8991 117.405 28.7002 117.405 29.5762V30.7329H108.016V28.79H114.732V28.5767C114.717 28.09 114.62 27.6333 114.44 27.2065C114.268 26.7798 114.002 26.4354 113.643 26.1733C113.283 25.9113 112.804 25.7803 112.205 25.7803C111.756 25.7803 111.355 25.8776 111.003 26.0723C110.659 26.2594 110.371 26.5327 110.139 26.8921C109.907 27.2515 109.727 27.6857 109.6 28.1948C109.48 28.6965 109.42 29.2617 109.42 29.8906V30.3398C109.42 30.8714 109.491 31.3656 109.633 31.8223C109.783 32.2715 110 32.6646 110.285 33.0015C110.569 33.3384 110.914 33.6042 111.318 33.7988C111.722 33.986 112.183 34.0796 112.699 34.0796C113.351 34.0796 113.931 33.9486 114.44 33.6865C114.949 33.4245 115.391 33.0539 115.765 32.5747L117.191 33.9561C116.929 34.3379 116.589 34.7048 116.169 35.0566C115.75 35.401 115.237 35.6818 114.631 35.8989C114.032 36.116 113.336 36.2246 112.542 36.2246ZM131.724 29.9019H127.467V27.667H131.724C132.465 27.667 133.064 27.5472 133.521 27.3076C133.977 27.068 134.31 26.7386 134.52 26.3193C134.737 25.8926 134.846 25.4059 134.846 24.8594C134.846 24.3428 134.737 23.8599 134.52 23.4106C134.31 22.9539 133.977 22.5871 133.521 22.3101C133.064 22.033 132.465 21.8945 131.724 21.8945H128.332V36H125.513V19.6484H131.724C132.989 19.6484 134.063 19.873 134.947 20.3223C135.838 20.764 136.515 21.3779 136.979 22.1641C137.444 22.9427 137.676 23.8337 137.676 24.8369C137.676 25.8926 137.444 26.7985 136.979 27.5547C136.515 28.3109 135.838 28.8911 134.947 29.2954C134.063 29.6997 132.989 29.9019 131.724 29.9019ZM142.831 18.75V36H140.113V18.75H142.831ZM152.646 33.563V27.7681C152.646 27.3338 152.567 26.9595 152.41 26.645C152.253 26.3306 152.013 26.0872 151.691 25.915C151.377 25.7428 150.98 25.6567 150.501 25.6567C150.059 25.6567 149.677 25.7316 149.355 25.8813C149.034 26.0311 148.783 26.2332 148.603 26.4878C148.423 26.7424 148.333 27.0306 148.333 27.3525H145.638C145.638 26.8734 145.754 26.4092 145.986 25.96C146.218 25.5107 146.555 25.1102 146.997 24.7583C147.439 24.4064 147.967 24.1294 148.581 23.9272C149.194 23.7251 149.883 23.624 150.647 23.624C151.56 23.624 152.369 23.7775 153.073 24.0845C153.784 24.3914 154.342 24.8556 154.746 25.4771C155.158 26.091 155.364 26.8621 155.364 27.7905V33.1924C155.364 33.7464 155.401 34.2443 155.476 34.686C155.558 35.1203 155.674 35.4984 155.824 35.8203V36H153.05C152.923 35.708 152.822 35.3374 152.747 34.8882C152.68 34.4315 152.646 33.9897 152.646 33.563ZM153.039 28.6104L153.062 30.2837H151.119C150.617 30.2837 150.175 30.3324 149.793 30.4297C149.412 30.5195 149.093 30.6543 148.839 30.834C148.584 31.0137 148.393 31.2308 148.266 31.4854C148.139 31.7399 148.075 32.0282 148.075 32.3501C148.075 32.672 148.15 32.9678 148.3 33.2373C148.45 33.4993 148.667 33.7052 148.951 33.855C149.243 34.0047 149.595 34.0796 150.007 34.0796C150.561 34.0796 151.044 33.9673 151.456 33.7427C151.875 33.5106 152.204 33.2298 152.444 32.9004C152.683 32.5635 152.811 32.2453 152.826 31.9458L153.702 33.1475C153.612 33.4544 153.458 33.7839 153.241 34.1357C153.024 34.4876 152.74 34.8245 152.388 35.1465C152.043 35.4609 151.628 35.7192 151.141 35.9214C150.662 36.1235 150.108 36.2246 149.479 36.2246C148.685 36.2246 147.978 36.0674 147.356 35.7529C146.735 35.431 146.248 35.0005 145.896 34.4614C145.545 33.9149 145.369 33.2972 145.369 32.6084C145.369 31.9645 145.488 31.3955 145.728 30.9014C145.975 30.3997 146.334 29.9805 146.806 29.6436C147.285 29.3066 147.869 29.0521 148.558 28.8799C149.247 28.7002 150.033 28.6104 150.917 28.6104H153.039ZM161.541 34.6748L164.842 23.8486H167.74L162.866 37.853C162.753 38.1525 162.607 38.4782 162.428 38.8301C162.248 39.182 162.012 39.5151 161.72 39.8296C161.436 40.1515 161.08 40.4098 160.653 40.6045C160.227 40.8066 159.71 40.9077 159.104 40.9077C158.864 40.9077 158.632 40.8853 158.407 40.8403C158.19 40.8029 157.984 40.7617 157.79 40.7168L157.778 38.6504C157.853 38.6579 157.943 38.6654 158.048 38.6729C158.16 38.6803 158.25 38.6841 158.317 38.6841C158.767 38.6841 159.141 38.6279 159.44 38.5156C159.74 38.4108 159.983 38.2386 160.17 37.999C160.365 37.7594 160.53 37.4375 160.665 37.0332L161.541 34.6748ZM159.676 23.8486L162.562 32.9453L163.045 35.7979L161.17 36.2808L156.756 23.8486H159.676Z" fill="white"/>
<path d="M48.75 12H46.0568V3.27273H48.8693C49.7159 3.27273 50.4403 3.44744 51.0426 3.79688C51.6449 4.14347 52.1065 4.64205 52.4276 5.29261C52.7486 5.94034 52.9091 6.71591 52.9091 7.61932C52.9091 8.52841 52.7472 9.31108 52.4233 9.96733C52.0994 10.6207 51.6278 11.1236 51.0085 11.4759C50.3892 11.8253 49.6364 12 48.75 12ZM47.1136 11.0625H48.6818C49.4034 11.0625 50.0014 10.9233 50.4759 10.6449C50.9503 10.3665 51.304 9.97017 51.5369 9.45597C51.7699 8.94176 51.8864 8.32955 51.8864 7.61932C51.8864 6.91477 51.7713 6.30824 51.5412 5.79972C51.3111 5.28835 50.9673 4.89631 50.5099 4.62358C50.0526 4.34801 49.483 4.21023 48.8011 4.21023H47.1136V11.0625ZM57.2045 12.1364C56.6136 12.1364 56.0952 11.9957 55.6491 11.7145C55.206 11.4332 54.8594 11.0398 54.6094 10.5341C54.3622 10.0284 54.2386 9.4375 54.2386 8.76136C54.2386 8.07955 54.3622 7.48437 54.6094 6.97585C54.8594 6.46733 55.206 6.07244 55.6491 5.79119C56.0952 5.50994 56.6136 5.36932 57.2045 5.36932C57.7955 5.36932 58.3125 5.50994 58.7557 5.79119C59.2017 6.07244 59.5483 6.46733 59.7955 6.97585C60.0455 7.48437 60.1705 8.07955 60.1705 8.76136C60.1705 9.4375 60.0455 10.0284 59.7955 10.5341C59.5483 11.0398 59.2017 11.4332 58.7557 11.7145C58.3125 11.9957 57.7955 12.1364 57.2045 12.1364ZM57.2045 11.233C57.6534 11.233 58.0227 11.1179 58.3125 10.8878C58.6023 10.6577 58.8168 10.3551 58.956 9.98011C59.0952 9.60511 59.1648 9.19886 59.1648 8.76136C59.1648 8.32386 59.0952 7.91619 58.956 7.53835C58.8168 7.16051 58.6023 6.85511 58.3125 6.62216C58.0227 6.3892 57.6534 6.27273 57.2045 6.27273C56.7557 6.27273 56.3864 6.3892 56.0966 6.62216C55.8068 6.85511 55.5923 7.16051 55.4531 7.53835C55.3139 7.91619 55.2443 8.32386 55.2443 8.76136C55.2443 9.19886 55.3139 9.60511 55.4531 9.98011C55.5923 10.3551 55.8068 10.6577 56.0966 10.8878C56.3864 11.1179 56.7557 11.233 57.2045 11.233ZM62.9659 12L60.9716 5.45455H62.0284L63.4432 10.4659H63.5114L64.9091 5.45455H65.983L67.3636 10.4489H67.4318L68.8466 5.45455H69.9034L67.9091 12H66.9205L65.4886 6.97159H65.3864L63.9545 12H62.9659ZM72.2386 8.0625V12H71.233V5.45455H72.2045V6.47727H72.2898C72.4432 6.14489 72.6761 5.87784 72.9886 5.67614C73.3011 5.47159 73.7045 5.36932 74.1989 5.36932C74.642 5.36932 75.0298 5.46023 75.3622 5.64205C75.6946 5.82102 75.9531 6.09375 76.1378 6.46023C76.3224 6.82386 76.4148 7.28409 76.4148 7.84091V12H75.4091V7.90909C75.4091 7.39489 75.2756 6.99432 75.0085 6.70739C74.7415 6.41761 74.375 6.27273 73.9091 6.27273C73.5881 6.27273 73.3011 6.34233 73.0483 6.48153C72.7983 6.62074 72.6009 6.82386 72.456 7.09091C72.3111 7.35795 72.2386 7.68182 72.2386 8.0625ZM79.2582 3.27273V12H78.2525V3.27273H79.2582ZM83.7592 12.1364C83.1683 12.1364 82.6499 11.9957 82.2038 11.7145C81.7607 11.4332 81.4141 11.0398 81.1641 10.5341C80.9169 10.0284 80.7933 9.4375 80.7933 8.76136C80.7933 8.07955 80.9169 7.48437 81.1641 6.97585C81.4141 6.46733 81.7607 6.07244 82.2038 5.79119C82.6499 5.50994 83.1683 5.36932 83.7592 5.36932C84.3501 5.36932 84.8672 5.50994 85.3104 5.79119C85.7564 6.07244 86.103 6.46733 86.3501 6.97585C86.6001 7.48437 86.7251 8.07955 86.7251 8.76136C86.7251 9.4375 86.6001 10.0284 86.3501 10.5341C86.103 11.0398 85.7564 11.4332 85.3104 11.7145C84.8672 11.9957 84.3501 12.1364 83.7592 12.1364ZM83.7592 11.233C84.2081 11.233 84.5774 11.1179 84.8672 10.8878C85.157 10.6577 85.3714 10.3551 85.5107 9.98011C85.6499 9.60511 85.7195 9.19886 85.7195 8.76136C85.7195 8.32386 85.6499 7.91619 85.5107 7.53835C85.3714 7.16051 85.157 6.85511 84.8672 6.62216C84.5774 6.3892 84.2081 6.27273 83.7592 6.27273C83.3104 6.27273 82.9411 6.3892 82.6513 6.62216C82.3615 6.85511 82.147 7.16051 82.0078 7.53835C81.8686 7.91619 81.799 8.32386 81.799 8.76136C81.799 9.19886 81.8686 9.60511 82.0078 9.98011C82.147 10.3551 82.3615 10.6577 82.6513 10.8878C82.9411 11.1179 83.3104 11.233 83.7592 11.233ZM90.1864 12.1534C89.7717 12.1534 89.3952 12.0753 89.0572 11.919C88.7191 11.7599 88.4506 11.5312 88.2518 11.233C88.0529 10.9318 87.9535 10.5682 87.9535 10.142C87.9535 9.76705 88.0273 9.46307 88.1751 9.23011C88.3228 8.99432 88.5202 8.80966 88.7674 8.67614C89.0146 8.54261 89.2873 8.44318 89.5856 8.37784C89.8867 8.30966 90.1893 8.25568 90.4933 8.21591C90.891 8.16477 91.2134 8.12642 91.4606 8.10085C91.7106 8.07244 91.8924 8.02557 92.006 7.96023C92.1225 7.89489 92.1808 7.78125 92.1808 7.61932V7.58523C92.1808 7.16477 92.0657 6.83807 91.8356 6.60511C91.6083 6.37216 91.2631 6.25568 90.8001 6.25568C90.32 6.25568 89.9435 6.3608 89.6708 6.57102C89.3981 6.78125 89.2063 7.00568 89.0955 7.24432L88.141 6.90341C88.3114 6.50568 88.5387 6.19602 88.8228 5.97443C89.1097 5.75 89.4222 5.59375 89.7603 5.50568C90.1012 5.41477 90.4364 5.36932 90.766 5.36932C90.9762 5.36932 91.2177 5.39489 91.4904 5.44602C91.766 5.49432 92.0316 5.59517 92.2873 5.74858C92.5458 5.90199 92.7603 6.13352 92.9308 6.44318C93.1012 6.75284 93.1864 7.16761 93.1864 7.6875V12H92.1808V11.1136H92.1296C92.0614 11.2557 91.9478 11.4077 91.7887 11.5696C91.6296 11.7315 91.418 11.8693 91.1538 11.983C90.8896 12.0966 90.5671 12.1534 90.1864 12.1534ZM90.3398 11.25C90.7376 11.25 91.0728 11.1719 91.3455 11.0156C91.6211 10.8594 91.8285 10.6577 91.9677 10.4105C92.1097 10.1634 92.1808 9.90341 92.1808 9.63068V8.71023C92.1381 8.76136 92.0444 8.80824 91.8995 8.85085C91.7575 8.89062 91.5927 8.92614 91.4052 8.95739C91.2205 8.9858 91.0401 9.01136 90.864 9.03409C90.6907 9.05398 90.5501 9.07102 90.4421 9.08523C90.1808 9.11932 89.9364 9.17472 89.7092 9.25142C89.4847 9.32528 89.3029 9.4375 89.1637 9.58807C89.0273 9.7358 88.9592 9.9375 88.9592 10.1932C88.9592 10.5426 89.0884 10.8068 89.3469 10.9858C89.6083 11.1619 89.9393 11.25 90.3398 11.25ZM97.4936 12.1364C96.9482 12.1364 96.4666 11.9986 96.049 11.723C95.6314 11.4446 95.3047 11.0526 95.0689 10.5469C94.8331 10.0384 94.7152 9.4375 94.7152 8.74432C94.7152 8.05682 94.8331 7.46023 95.0689 6.95455C95.3047 6.44886 95.6328 6.05824 96.0533 5.78267C96.4737 5.5071 96.9595 5.36932 97.5107 5.36932C97.9368 5.36932 98.2734 5.44034 98.5206 5.58239C98.7706 5.72159 98.9609 5.88068 99.0916 6.05966C99.2251 6.2358 99.3288 6.38068 99.4027 6.49432H99.4879V3.27273H100.494V12H99.522V10.9943H99.4027C99.3288 11.1136 99.2237 11.2642 99.0874 11.446C98.951 11.625 98.7564 11.7855 98.5036 11.9276C98.2507 12.0668 97.9141 12.1364 97.4936 12.1364ZM97.63 11.233C98.0334 11.233 98.3743 11.1278 98.6527 10.9176C98.9311 10.7045 99.1428 10.4105 99.2876 10.0355C99.4325 9.65767 99.505 9.22159 99.505 8.72727C99.505 8.23864 99.4339 7.81108 99.2919 7.4446C99.1499 7.07528 98.9396 6.78835 98.6612 6.58381C98.3828 6.37642 98.0391 6.27273 97.63 6.27273C97.2038 6.27273 96.8487 6.3821 96.5646 6.60085C96.2834 6.81676 96.0717 7.1108 95.9297 7.48295C95.7905 7.85227 95.7209 8.26705 95.7209 8.72727C95.7209 9.19318 95.7919 9.61648 95.9339 9.99716C96.0788 10.375 96.2919 10.6761 96.5732 10.9006C96.8572 11.1222 97.2095 11.233 97.63 11.233Z" fill="white"/>
<g clip-path="url(#clip0_2_5)">
<path d="M25.9546 16.6672L9.04647 6.09745C8.83401 5.96252 8.56671 5.97002 8.3611 6.10495C8.14864 6.23988 8.01842 6.47976 8.01842 6.74963C8.01842 6.74963 8.02527 7.72414 8.03212 9.32834L20.3483 22.7991L25.9546 16.6672Z" fill="url(#paint0_linear_2_5)"/>
<path d="M8.03212 9.32833C8.05268 15.1154 8.11436 29.1634 8.14178 36.1574L20.3551 22.7991L8.03212 9.32833Z" fill="url(#paint1_linear_2_5)"/>
<path d="M35.6149 22.994L25.9375 16.9445L20.3243 23.0765L26.6571 30.003L35.6218 24.2909C35.8342 24.1559 35.9644 23.9085 35.9644 23.6462C35.9644 23.3763 35.8274 23.1289 35.6149 22.994V22.994Z" fill="url(#paint2_linear_2_5)"/>
<path d="M8.13493 36.1574C8.14864 38.6537 8.15549 40.2504 8.15549 40.2504C8.15549 40.5202 8.28572 40.7676 8.49818 40.8951C8.71065 41.03 8.97109 41.03 9.18355 40.8951L26.6811 29.7331L20.3483 22.8066L8.13493 36.1574Z" fill="url(#paint3_linear_2_5)"/>
</g>
<defs>
<linearGradient id="paint0_linear_2_5" x1="8.01842" y1="14.4029" x2="25.9577" y2="14.4029" gradientUnits="userSpaceOnUse">
<stop stop-color="#63BE6B"/>
<stop offset="0.506" stop-color="#5BBC6A"/>
<stop offset="1" stop-color="#4AB96A"/>
</linearGradient>
<linearGradient id="paint1_linear_2_5" x1="8.02883" y1="22.7461" x2="20.348" y2="22.7461" gradientUnits="userSpaceOnUse">
<stop stop-color="#3EC6F2"/>
<stop offset="1" stop-color="#45AFE3"/>
</linearGradient>
<linearGradient id="paint2_linear_2_5" x1="20.3308" y1="23.4786" x2="35.9628" y2="23.4786" gradientUnits="userSpaceOnUse">
<stop stop-color="#FAA51A"/>
<stop offset="0.387" stop-color="#FAB716"/>
<stop offset="0.741" stop-color="#FAC412"/>
<stop offset="1" stop-color="#FAC80F"/>
</linearGradient>
<linearGradient id="paint3_linear_2_5" x1="8.13795" y1="31.9011" x2="26.6808" y2="31.9011" gradientUnits="userSpaceOnUse">
<stop stop-color="#EC3B50"/>
<stop offset="1" stop-color="#E7515B"/>
</linearGradient>
<clipPath id="clip0_2_5">
<rect width="32" height="35" fill="white" transform="translate(6 6)"/>
</clipPath>
</defs>
</svg>
