<svg width="175" height="47" viewBox="0 0 175 47" fill="none" xmlns="http://www.w3.org/2000/svg">
<rect width="173" height="47" rx="5" fill="#1E1E1E"/>
<path d="M53.5586 21.2109L48.4609 36H45.3789L51.8008 18.9375H53.7695L53.5586 21.2109ZM57.8242 36L52.7148 21.2109L52.4922 18.9375H54.4727L60.918 36H57.8242ZM57.5781 29.6719V32.0039H48.2969V29.6719H57.5781ZM65.1719 25.7578V40.875H62.3477V23.3203H64.9492L65.1719 25.7578ZM73.4336 29.543V29.7891C73.4336 30.7109 73.3242 31.5664 73.1055 32.3555C72.8945 33.1367 72.5781 33.8203 72.1562 34.4062C71.7422 34.9844 71.2305 35.4336 70.6211 35.7539C70.0117 36.0742 69.3086 36.2344 68.5117 36.2344C67.7227 36.2344 67.0312 36.0898 66.4375 35.8008C65.8516 35.5039 65.3555 35.0859 64.9492 34.5469C64.543 34.0078 64.2148 33.375 63.9648 32.6484C63.7227 31.9141 63.5508 31.1094 63.4492 30.2344V29.2852C63.5508 28.3555 63.7227 27.5117 63.9648 26.7539C64.2148 25.9961 64.543 25.3438 64.9492 24.7969C65.3555 24.25 65.8516 23.8281 66.4375 23.5312C67.0234 23.2344 67.707 23.0859 68.4883 23.0859C69.2852 23.0859 69.9922 23.2422 70.6094 23.5547C71.2266 23.8594 71.7461 24.2969 72.168 24.8672C72.5898 25.4297 72.9062 26.1094 73.1172 26.9062C73.3281 27.6953 73.4336 28.5742 73.4336 29.543ZM70.6094 29.7891V29.543C70.6094 28.957 70.5547 28.4141 70.4453 27.9141C70.3359 27.4062 70.1641 26.9609 69.9297 26.5781C69.6953 26.1953 69.3945 25.8984 69.0273 25.6875C68.668 25.4688 68.2344 25.3594 67.7266 25.3594C67.2266 25.3594 66.7969 25.4453 66.4375 25.6172C66.0781 25.7812 65.7773 26.0117 65.5352 26.3086C65.293 26.6055 65.1055 26.9531 64.9727 27.3516C64.8398 27.7422 64.7461 28.168 64.6914 28.6289V30.9023C64.7852 31.4648 64.9453 31.9805 65.1719 32.4492C65.3984 32.918 65.7188 33.293 66.1328 33.5742C66.5547 33.8477 67.0938 33.9844 67.75 33.9844C68.2578 33.9844 68.6914 33.875 69.0508 33.6562C69.4102 33.4375 69.7031 33.1367 69.9297 32.7539C70.1641 32.3633 70.3359 31.9141 70.4453 31.4062C70.5547 30.8984 70.6094 30.3594 70.6094 29.7891ZM78.6719 25.7578V40.875H75.8477V23.3203H78.4492L78.6719 25.7578ZM86.9336 29.543V29.7891C86.9336 30.7109 86.8242 31.5664 86.6055 32.3555C86.3945 33.1367 86.0781 33.8203 85.6562 34.4062C85.2422 34.9844 84.7305 35.4336 84.1211 35.7539C83.5117 36.0742 82.8086 36.2344 82.0117 36.2344C81.2227 36.2344 80.5312 36.0898 79.9375 35.8008C79.3516 35.5039 78.8555 35.0859 78.4492 34.5469C78.043 34.0078 77.7148 33.375 77.4648 32.6484C77.2227 31.9141 77.0508 31.1094 76.9492 30.2344V29.2852C77.0508 28.3555 77.2227 27.5117 77.4648 26.7539C77.7148 25.9961 78.043 25.3438 78.4492 24.7969C78.8555 24.25 79.3516 23.8281 79.9375 23.5312C80.5234 23.2344 81.207 23.0859 81.9883 23.0859C82.7852 23.0859 83.4922 23.2422 84.1094 23.5547C84.7266 23.8594 85.2461 24.2969 85.668 24.8672C86.0898 25.4297 86.4062 26.1094 86.6172 26.9062C86.8281 27.6953 86.9336 28.5742 86.9336 29.543ZM84.1094 29.7891V29.543C84.1094 28.957 84.0547 28.4141 83.9453 27.9141C83.8359 27.4062 83.6641 26.9609 83.4297 26.5781C83.1953 26.1953 82.8945 25.8984 82.5273 25.6875C82.168 25.4688 81.7344 25.3594 81.2266 25.3594C80.7266 25.3594 80.2969 25.4453 79.9375 25.6172C79.5781 25.7812 79.2773 26.0117 79.0352 26.3086C78.793 26.6055 78.6055 26.9531 78.4727 27.3516C78.3398 27.7422 78.2461 28.168 78.1914 28.6289V30.9023C78.2852 31.4648 78.4453 31.9805 78.6719 32.4492C78.8984 32.918 79.2188 33.293 79.6328 33.5742C80.0547 33.8477 80.5938 33.9844 81.25 33.9844C81.7578 33.9844 82.1914 33.875 82.5508 33.6562C82.9102 33.4375 83.2031 33.1367 83.4297 32.7539C83.6641 32.3633 83.8359 31.9141 83.9453 31.4062C84.0547 30.8984 84.1094 30.3594 84.1094 29.7891ZM92.3594 18V36H89.5234V18H92.3594ZM101.043 36.2344C100.105 36.2344 99.2578 36.082 98.5 35.7773C97.75 35.4648 97.1094 35.0312 96.5781 34.4766C96.0547 33.9219 95.6523 33.2695 95.3711 32.5195C95.0898 31.7695 94.9492 30.9609 94.9492 30.0938V29.625C94.9492 28.6328 95.0938 27.7344 95.3828 26.9297C95.6719 26.125 96.0742 25.4375 96.5898 24.8672C97.1055 24.2891 97.7148 23.8477 98.418 23.543C99.1211 23.2383 99.8828 23.0859 100.703 23.0859C101.609 23.0859 102.402 23.2383 103.082 23.543C103.762 23.8477 104.324 24.2773 104.77 24.832C105.223 25.3789 105.559 26.0312 105.777 26.7891C106.004 27.5469 106.117 28.3828 106.117 29.2969V30.5039H96.3203V28.4766H103.328V28.2539C103.312 27.7461 103.211 27.2695 103.023 26.8242C102.844 26.3789 102.566 26.0195 102.191 25.7461C101.816 25.4727 101.316 25.3359 100.691 25.3359C100.223 25.3359 99.8047 25.4375 99.4375 25.6406C99.0781 25.8359 98.7773 26.1211 98.5352 26.4961C98.293 26.8711 98.1055 27.3242 97.9727 27.8555C97.8477 28.3789 97.7852 28.9688 97.7852 29.625V30.0938C97.7852 30.6484 97.8594 31.1641 98.0078 31.6406C98.1641 32.1094 98.3906 32.5195 98.6875 32.8711C98.9844 33.2227 99.3438 33.5 99.7656 33.7031C100.188 33.8984 100.668 33.9961 101.207 33.9961C101.887 33.9961 102.492 33.8594 103.023 33.5859C103.555 33.3125 104.016 32.9258 104.406 32.4258L105.895 33.8672C105.621 34.2656 105.266 34.6484 104.828 35.0156C104.391 35.375 103.855 35.668 103.223 35.8945C102.598 36.1211 101.871 36.2344 101.043 36.2344ZM123.555 31.6055C123.555 31.2539 123.5 30.9414 123.391 30.668C123.289 30.3945 123.105 30.1445 122.84 29.918C122.574 29.6914 122.199 29.4727 121.715 29.2617C121.238 29.043 120.629 28.8203 119.887 28.5938C119.074 28.3438 118.324 28.0664 117.637 27.7617C116.957 27.4492 116.363 27.0898 115.855 26.6836C115.348 26.2695 114.953 25.7969 114.672 25.2656C114.391 24.7266 114.25 24.1055 114.25 23.4023C114.25 22.707 114.395 22.0742 114.684 21.5039C114.98 20.9336 115.398 20.4414 115.938 20.0273C116.484 19.6055 117.129 19.2812 117.871 19.0547C118.613 18.8203 119.434 18.7031 120.332 18.7031C121.598 18.7031 122.688 18.9375 123.602 19.4062C124.523 19.875 125.23 20.5039 125.723 21.293C126.223 22.082 126.473 22.9531 126.473 23.9062H123.555C123.555 23.3438 123.434 22.8477 123.191 22.418C122.957 21.9805 122.598 21.6367 122.113 21.3867C121.637 21.1367 121.031 21.0117 120.297 21.0117C119.602 21.0117 119.023 21.1172 118.562 21.3281C118.102 21.5391 117.758 21.8242 117.531 22.1836C117.305 22.543 117.191 22.9492 117.191 23.4023C117.191 23.7227 117.266 24.0156 117.414 24.2812C117.562 24.5391 117.789 24.7812 118.094 25.0078C118.398 25.2266 118.781 25.4336 119.242 25.6289C119.703 25.8242 120.246 26.0117 120.871 26.1914C121.816 26.4727 122.641 26.7852 123.344 27.1289C124.047 27.4648 124.633 27.8477 125.102 28.2773C125.57 28.707 125.922 29.1953 126.156 29.7422C126.391 30.2812 126.508 30.8945 126.508 31.582C126.508 32.3008 126.363 32.9492 126.074 33.5273C125.785 34.0977 125.371 34.5859 124.832 34.9922C124.301 35.3906 123.66 35.6992 122.91 35.918C122.168 36.1289 121.34 36.2344 120.426 36.2344C119.605 36.2344 118.797 36.125 118 35.9062C117.211 35.6875 116.492 35.3555 115.844 34.9102C115.195 34.457 114.68 33.8945 114.297 33.2227C113.914 32.543 113.723 31.75 113.723 30.8438H116.664C116.664 31.3984 116.758 31.8711 116.945 32.2617C117.141 32.6523 117.41 32.9727 117.754 33.2227C118.098 33.4648 118.496 33.6445 118.949 33.7617C119.41 33.8789 119.902 33.9375 120.426 33.9375C121.113 33.9375 121.688 33.8398 122.148 33.6445C122.617 33.4492 122.969 33.1758 123.203 32.8242C123.438 32.4727 123.555 32.0664 123.555 31.6055ZM134.641 23.3203V25.3828H127.492V23.3203H134.641ZM129.555 20.2148H132.379V32.4961C132.379 32.8867 132.434 33.1875 132.543 33.3984C132.66 33.6016 132.82 33.7383 133.023 33.8086C133.227 33.8789 133.465 33.9141 133.738 33.9141C133.934 33.9141 134.121 33.9023 134.301 33.8789C134.48 33.8555 134.625 33.832 134.734 33.8086L134.746 35.9648C134.512 36.0352 134.238 36.0977 133.926 36.1523C133.621 36.207 133.27 36.2344 132.871 36.2344C132.223 36.2344 131.648 36.1211 131.148 35.8945C130.648 35.6602 130.258 35.2812 129.977 34.7578C129.695 34.2344 129.555 33.5391 129.555 32.6719V20.2148ZM136 29.8008V29.5312C136 28.6172 136.133 27.7695 136.398 26.9883C136.664 26.1992 137.047 25.5156 137.547 24.9375C138.055 24.3516 138.672 23.8984 139.398 23.5781C140.133 23.25 140.961 23.0859 141.883 23.0859C142.812 23.0859 143.641 23.25 144.367 23.5781C145.102 23.8984 145.723 24.3516 146.23 24.9375C146.738 25.5156 147.125 26.1992 147.391 26.9883C147.656 27.7695 147.789 28.6172 147.789 29.5312V29.8008C147.789 30.7148 147.656 31.5625 147.391 32.3438C147.125 33.125 146.738 33.8086 146.23 34.3945C145.723 34.9727 145.105 35.4258 144.379 35.7539C143.652 36.0742 142.828 36.2344 141.906 36.2344C140.977 36.2344 140.145 36.0742 139.41 35.7539C138.684 35.4258 138.066 34.9727 137.559 34.3945C137.051 33.8086 136.664 33.125 136.398 32.3438C136.133 31.5625 136 30.7148 136 29.8008ZM138.824 29.5312V29.8008C138.824 30.3711 138.883 30.9102 139 31.418C139.117 31.9258 139.301 32.3711 139.551 32.7539C139.801 33.1367 140.121 33.4375 140.512 33.6562C140.902 33.875 141.367 33.9844 141.906 33.9844C142.43 33.9844 142.883 33.875 143.266 33.6562C143.656 33.4375 143.977 33.1367 144.227 32.7539C144.477 32.3711 144.66 31.9258 144.777 31.418C144.902 30.9102 144.965 30.3711 144.965 29.8008V29.5312C144.965 28.9688 144.902 28.4375 144.777 27.9375C144.66 27.4297 144.473 26.9805 144.215 26.5898C143.965 26.1992 143.645 25.8945 143.254 25.6758C142.871 25.4492 142.414 25.3359 141.883 25.3359C141.352 25.3359 140.891 25.4492 140.5 25.6758C140.117 25.8945 139.801 26.1992 139.551 26.5898C139.301 26.9805 139.117 27.4297 139 27.9375C138.883 28.4375 138.824 28.9688 138.824 29.5312ZM152.992 25.7344V36H150.168V23.3203H152.863L152.992 25.7344ZM156.871 23.2383L156.848 25.8633C156.676 25.832 156.488 25.8086 156.285 25.793C156.09 25.7773 155.895 25.7695 155.699 25.7695C155.215 25.7695 154.789 25.8398 154.422 25.9805C154.055 26.1133 153.746 26.3086 153.496 26.5664C153.254 26.8164 153.066 27.1211 152.934 27.4805C152.801 27.8398 152.723 28.2422 152.699 28.6875L152.055 28.7344C152.055 27.9375 152.133 27.1992 152.289 26.5195C152.445 25.8398 152.68 25.2422 152.992 24.7266C153.312 24.2109 153.711 23.8086 154.188 23.5195C154.672 23.2305 155.23 23.0859 155.863 23.0859C156.035 23.0859 156.219 23.1016 156.414 23.1328C156.617 23.1641 156.77 23.1992 156.871 23.2383ZM163.996 36.2344C163.059 36.2344 162.211 36.082 161.453 35.7773C160.703 35.4648 160.062 35.0312 159.531 34.4766C159.008 33.9219 158.605 33.2695 158.324 32.5195C158.043 31.7695 157.902 30.9609 157.902 30.0938V29.625C157.902 28.6328 158.047 27.7344 158.336 26.9297C158.625 26.125 159.027 25.4375 159.543 24.8672C160.059 24.2891 160.668 23.8477 161.371 23.543C162.074 23.2383 162.836 23.0859 163.656 23.0859C164.562 23.0859 165.355 23.2383 166.035 23.543C166.715 23.8477 167.277 24.2773 167.723 24.832C168.176 25.3789 168.512 26.0312 168.73 26.7891C168.957 27.5469 169.07 28.3828 169.07 29.2969V30.5039H159.273V28.4766H166.281V28.2539C166.266 27.7461 166.164 27.2695 165.977 26.8242C165.797 26.3789 165.52 26.0195 165.145 25.7461C164.77 25.4727 164.27 25.3359 163.645 25.3359C163.176 25.3359 162.758 25.4375 162.391 25.6406C162.031 25.8359 161.73 26.1211 161.488 26.4961C161.246 26.8711 161.059 27.3242 160.926 27.8555C160.801 28.3789 160.738 28.9688 160.738 29.625V30.0938C160.738 30.6484 160.812 31.1641 160.961 31.6406C161.117 32.1094 161.344 32.5195 161.641 32.8711C161.938 33.2227 162.297 33.5 162.719 33.7031C163.141 33.8984 163.621 33.9961 164.16 33.9961C164.84 33.9961 165.445 33.8594 165.977 33.5859C166.508 33.3125 166.969 32.9258 167.359 32.4258L168.848 33.8672C168.574 34.2656 168.219 34.6484 167.781 35.0156C167.344 35.375 166.809 35.668 166.176 35.8945C165.551 36.1211 164.824 36.2344 163.996 36.2344Z" fill="white"/>
<path d="M48.75 12H46.0568V3.27273H48.8693C49.7159 3.27273 50.4403 3.44744 51.0426 3.79688C51.6449 4.14347 52.1065 4.64205 52.4276 5.29261C52.7486 5.94034 52.9091 6.71591 52.9091 7.61932C52.9091 8.52841 52.7472 9.31108 52.4233 9.96733C52.0994 10.6207 51.6278 11.1236 51.0085 11.4759C50.3892 11.8253 49.6364 12 48.75 12ZM47.1136 11.0625H48.6818C49.4034 11.0625 50.0014 10.9233 50.4759 10.6449C50.9503 10.3665 51.304 9.97017 51.5369 9.45597C51.7699 8.94176 51.8864 8.32955 51.8864 7.61932C51.8864 6.91477 51.7713 6.30824 51.5412 5.79972C51.3111 5.28835 50.9673 4.89631 50.5099 4.62358C50.0526 4.34801 49.483 4.21023 48.8011 4.21023H47.1136V11.0625ZM57.2045 12.1364C56.6136 12.1364 56.0952 11.9957 55.6491 11.7145C55.206 11.4332 54.8594 11.0398 54.6094 10.5341C54.3622 10.0284 54.2386 9.4375 54.2386 8.76136C54.2386 8.07955 54.3622 7.48437 54.6094 6.97585C54.8594 6.46733 55.206 6.07244 55.6491 5.79119C56.0952 5.50994 56.6136 5.36932 57.2045 5.36932C57.7955 5.36932 58.3125 5.50994 58.7557 5.79119C59.2017 6.07244 59.5483 6.46733 59.7955 6.97585C60.0455 7.48437 60.1705 8.07955 60.1705 8.76136C60.1705 9.4375 60.0455 10.0284 59.7955 10.5341C59.5483 11.0398 59.2017 11.4332 58.7557 11.7145C58.3125 11.9957 57.7955 12.1364 57.2045 12.1364ZM57.2045 11.233C57.6534 11.233 58.0227 11.1179 58.3125 10.8878C58.6023 10.6577 58.8168 10.3551 58.956 9.98011C59.0952 9.60511 59.1648 9.19886 59.1648 8.76136C59.1648 8.32386 59.0952 7.91619 58.956 7.53835C58.8168 7.16051 58.6023 6.85511 58.3125 6.62216C58.0227 6.3892 57.6534 6.27273 57.2045 6.27273C56.7557 6.27273 56.3864 6.3892 56.0966 6.62216C55.8068 6.85511 55.5923 7.16051 55.4531 7.53835C55.3139 7.91619 55.2443 8.32386 55.2443 8.76136C55.2443 9.19886 55.3139 9.60511 55.4531 9.98011C55.5923 10.3551 55.8068 10.6577 56.0966 10.8878C56.3864 11.1179 56.7557 11.233 57.2045 11.233ZM62.9659 12L60.9716 5.45455H62.0284L63.4432 10.4659H63.5114L64.9091 5.45455H65.983L67.3636 10.4489H67.4318L68.8466 5.45455H69.9034L67.9091 12H66.9205L65.4886 6.97159H65.3864L63.9545 12H62.9659ZM72.2386 8.0625V12H71.233V5.45455H72.2045V6.47727H72.2898C72.4432 6.14489 72.6761 5.87784 72.9886 5.67614C73.3011 5.47159 73.7045 5.36932 74.1989 5.36932C74.642 5.36932 75.0298 5.46023 75.3622 5.64205C75.6946 5.82102 75.9531 6.09375 76.1378 6.46023C76.3224 6.82386 76.4148 7.28409 76.4148 7.84091V12H75.4091V7.90909C75.4091 7.39489 75.2756 6.99432 75.0085 6.70739C74.7415 6.41761 74.375 6.27273 73.9091 6.27273C73.5881 6.27273 73.3011 6.34233 73.0483 6.48153C72.7983 6.62074 72.6009 6.82386 72.456 7.09091C72.3111 7.35795 72.2386 7.68182 72.2386 8.0625ZM79.2582 3.27273V12H78.2525V3.27273H79.2582ZM83.7592 12.1364C83.1683 12.1364 82.6499 11.9957 82.2038 11.7145C81.7607 11.4332 81.4141 11.0398 81.1641 10.5341C80.9169 10.0284 80.7933 9.4375 80.7933 8.76136C80.7933 8.07955 80.9169 7.48437 81.1641 6.97585C81.4141 6.46733 81.7607 6.07244 82.2038 5.79119C82.6499 5.50994 83.1683 5.36932 83.7592 5.36932C84.3501 5.36932 84.8672 5.50994 85.3104 5.79119C85.7564 6.07244 86.103 6.46733 86.3501 6.97585C86.6001 7.48437 86.7251 8.07955 86.7251 8.76136C86.7251 9.4375 86.6001 10.0284 86.3501 10.5341C86.103 11.0398 85.7564 11.4332 85.3104 11.7145C84.8672 11.9957 84.3501 12.1364 83.7592 12.1364ZM83.7592 11.233C84.2081 11.233 84.5774 11.1179 84.8672 10.8878C85.157 10.6577 85.3714 10.3551 85.5107 9.98011C85.6499 9.60511 85.7195 9.19886 85.7195 8.76136C85.7195 8.32386 85.6499 7.91619 85.5107 7.53835C85.3714 7.16051 85.157 6.85511 84.8672 6.62216C84.5774 6.3892 84.2081 6.27273 83.7592 6.27273C83.3104 6.27273 82.9411 6.3892 82.6513 6.62216C82.3615 6.85511 82.147 7.16051 82.0078 7.53835C81.8686 7.91619 81.799 8.32386 81.799 8.76136C81.799 9.19886 81.8686 9.60511 82.0078 9.98011C82.147 10.3551 82.3615 10.6577 82.6513 10.8878C82.9411 11.1179 83.3104 11.233 83.7592 11.233ZM90.1864 12.1534C89.7717 12.1534 89.3952 12.0753 89.0572 11.919C88.7191 11.7599 88.4506 11.5312 88.2518 11.233C88.0529 10.9318 87.9535 10.5682 87.9535 10.142C87.9535 9.76705 88.0273 9.46307 88.1751 9.23011C88.3228 8.99432 88.5202 8.80966 88.7674 8.67614C89.0146 8.54261 89.2873 8.44318 89.5856 8.37784C89.8867 8.30966 90.1893 8.25568 90.4933 8.21591C90.891 8.16477 91.2134 8.12642 91.4606 8.10085C91.7106 8.07244 91.8924 8.02557 92.006 7.96023C92.1225 7.89489 92.1808 7.78125 92.1808 7.61932V7.58523C92.1808 7.16477 92.0657 6.83807 91.8356 6.60511C91.6083 6.37216 91.2631 6.25568 90.8001 6.25568C90.32 6.25568 89.9435 6.3608 89.6708 6.57102C89.3981 6.78125 89.2063 7.00568 89.0955 7.24432L88.141 6.90341C88.3114 6.50568 88.5387 6.19602 88.8228 5.97443C89.1097 5.75 89.4222 5.59375 89.7603 5.50568C90.1012 5.41477 90.4364 5.36932 90.766 5.36932C90.9762 5.36932 91.2177 5.39489 91.4904 5.44602C91.766 5.49432 92.0316 5.59517 92.2873 5.74858C92.5458 5.90199 92.7603 6.13352 92.9308 6.44318C93.1012 6.75284 93.1864 7.16761 93.1864 7.6875V12H92.1808V11.1136H92.1296C92.0614 11.2557 91.9478 11.4077 91.7887 11.5696C91.6296 11.7315 91.418 11.8693 91.1538 11.983C90.8896 12.0966 90.5671 12.1534 90.1864 12.1534ZM90.3398 11.25C90.7376 11.25 91.0728 11.1719 91.3455 11.0156C91.6211 10.8594 91.8285 10.6577 91.9677 10.4105C92.1097 10.1634 92.1808 9.90341 92.1808 9.63068V8.71023C92.1381 8.76136 92.0444 8.80824 91.8995 8.85085C91.7575 8.89062 91.5927 8.92614 91.4052 8.95739C91.2205 8.9858 91.0401 9.01136 90.864 9.03409C90.6907 9.05398 90.5501 9.07102 90.4421 9.08523C90.1808 9.11932 89.9364 9.17472 89.7092 9.25142C89.4847 9.32528 89.3029 9.4375 89.1637 9.58807C89.0273 9.7358 88.9592 9.9375 88.9592 10.1932C88.9592 10.5426 89.0884 10.8068 89.3469 10.9858C89.6083 11.1619 89.9393 11.25 90.3398 11.25ZM97.4936 12.1364C96.9482 12.1364 96.4666 11.9986 96.049 11.723C95.6314 11.4446 95.3047 11.0526 95.0689 10.5469C94.8331 10.0384 94.7152 9.4375 94.7152 8.74432C94.7152 8.05682 94.8331 7.46023 95.0689 6.95455C95.3047 6.44886 95.6328 6.05824 96.0533 5.78267C96.4737 5.5071 96.9595 5.36932 97.5107 5.36932C97.9368 5.36932 98.2734 5.44034 98.5206 5.58239C98.7706 5.72159 98.9609 5.88068 99.0916 6.05966C99.2251 6.2358 99.3288 6.38068 99.4027 6.49432H99.4879V3.27273H100.494V12H99.522V10.9943H99.4027C99.3288 11.1136 99.2237 11.2642 99.0874 11.446C98.951 11.625 98.7564 11.7855 98.5036 11.9276C98.2507 12.0668 97.9141 12.1364 97.4936 12.1364ZM97.63 11.233C98.0334 11.233 98.3743 11.1278 98.6527 10.9176C98.9311 10.7045 99.1428 10.4105 99.2876 10.0355C99.4325 9.65767 99.505 9.22159 99.505 8.72727C99.505 8.23864 99.4339 7.81108 99.2919 7.4446C99.1499 7.07528 98.9396 6.78835 98.6612 6.58381C98.3828 6.37642 98.0391 6.27273 97.63 6.27273C97.2038 6.27273 96.8487 6.3821 96.5646 6.60085C96.2834 6.81676 96.0717 7.1108 95.9297 7.48295C95.7905 7.85227 95.7209 8.26705 95.7209 8.72727C95.7209 9.19318 95.7919 9.61648 95.9339 9.99716C96.0788 10.375 96.2919 10.6761 96.5732 10.9006C96.8572 11.1222 97.2095 11.233 97.63 11.233Z" fill="white"/>
<path d="M29.9932 11.3193C31.5364 9.90941 32.5801 7.95194 32.2944 6C30.0713 6.06771 27.3768 7.11373 25.7811 8.52352C24.3506 9.77159 23.0982 11.7663 23.4324 13.6799C25.9132 13.8231 28.4475 12.7269 29.9932 11.3193ZM34.7278 24.7995C34.6804 20.4234 38.7874 18.3216 38.9693 18.2201C36.6603 15.2484 33.0643 14.8418 31.7837 14.7959C28.7217 14.5216 25.8133 16.3785 24.2587 16.3785C22.7105 16.3785 20.3157 14.8319 17.7762 14.8735C14.4376 14.9204 11.3614 16.5796 9.64674 19.2091C6.17863 24.499 8.75784 32.3352 12.1373 36.626C13.7894 38.7266 15.7564 41.083 18.3394 40.9978C20.8328 40.9125 21.7728 39.5824 24.781 39.5824C27.7906 39.5824 28.6332 40.9978 31.2661 40.9551C33.9452 40.9125 35.6407 38.8141 37.2787 36.7069C39.174 34.2708 39.9553 31.9123 40 31.7932C39.9425 31.7647 34.7828 30.0325 34.7278 24.7995Z" fill="#CCD0D2"/>
</svg>
